<svg xmlns="http://www.w3.org/2000/svg" width="60" height="60" viewBox="0 0 60 60"><defs><style>.a{fill:#ffe7ad;}.b{fill:#ffb400;}</style></defs><path class="a" d="M48.75,60H11.25A11.249,11.249,0,0,1,0,48.75V11.25A11.249,11.249,0,0,1,11.25,0h37.5A11.249,11.249,0,0,1,60,11.25v37.5A11.249,11.249,0,0,1,48.75,60Zm0,0"/><path class="b" d="M154.5,131.036A3.039,3.039,0,0,0,151.464,128H131.036A3.039,3.039,0,0,0,128,131.036v20.427a3.039,3.039,0,0,0,3.036,3.038h20.427a3.039,3.039,0,0,0,3.038-3.036Zm-6.534,5.845a1.105,1.105,0,0,1,0,1.562l-7.177,7.177a1.1,1.1,0,0,1-1.56,0l-3.589-3.589a1.1,1.1,0,0,1,1.562-1.562l2.807,2.807,6.4-6.4A1.1,1.1,0,0,1,147.966,136.881Zm0,0" transform="translate(-111.25 -111.25)"/></svg>