<svg xmlns="http://www.w3.org/2000/svg" width="17" height="17" viewBox="0 0 17 17"><defs><style>.a{fill:#909091;}</style></defs><path class="a" d="M8.5,0A8.5,8.5,0,1,0,17,8.5,8.51,8.51,0,0,0,8.5,0Zm.553,13.543c-.4.067-1.207.235-1.615.269a1,1,0,0,1-.87-.453,1.062,1.062,0,0,1-.129-.973L8.046,7.969H6.375A2,2,0,0,1,7.947,6.111a6.151,6.151,0,0,1,1.615-.268,1.281,1.281,0,0,1,.87.453,1.062,1.062,0,0,1,.129.973L8.954,11.688h1.67a1.881,1.881,0,0,1-1.572,1.856Zm.51-8.231A1.063,1.063,0,1,1,10.625,4.25,1.063,1.063,0,0,1,9.562,5.313Z"/></svg>