<svg xmlns="http://www.w3.org/2000/svg" width="16.128" height="16.128" viewBox="0 0 16.128 16.128"><defs><style>.a{fill:#fff;}.b{fill:#04d677;}.c{fill:#05d36a;}</style></defs><g transform="translate(-42.24 -29.176)"><circle class="a" cx="7" cy="7" r="7" transform="translate(43 30)"/><g transform="translate(50.314 37.637)"><path class="b" d="M256,263.123v1.289c.327-.077.586-.26.586-.606C256.586,263.489,256.346,263.286,256,263.123Z" transform="translate(-256 -263.123)"/></g><g transform="translate(49.121 34.6)"><g transform="translate(0)"><path class="b" d="M233.078,205.525c0,.279.25.452.615.606v-1.145C233.261,205.073,233.078,205.294,233.078,205.525Z" transform="translate(-233.078 -204.986)"/></g></g><g transform="translate(42.24 29.176)"><path class="c" d="M109.064,101a8.064,8.064,0,1,0,8.064,8.064A8.073,8.073,0,0,0,109.064,101Zm.1,11.151v.289c0,.139-.189.269-.378.269-.219,0-.378-.129-.378-.269v-.249c-1.193-.04-2.167-.657-2.167-1.293,0-.338.3-.836.676-.836.417,0,.755.587,1.491.716v-1.612c-.914-.348-1.988-.776-1.988-2.05a2.034,2.034,0,0,1,1.988-2.02v-.279c0-.139.159-.269.378-.269.189,0,.378.129.378.269v.249c.616.02,1.779.179,1.779.866,0,.269-.179.816-.616.816-.328,0-.517-.318-1.163-.368v1.453c.9.338,1.958.806,1.958,2.149A2.114,2.114,0,0,1,109.163,112.151Z" transform="translate(-101 -101)"/></g></g></svg>