<svg xmlns="http://www.w3.org/2000/svg" width="121.921" height="48.287" viewBox="0 0 121.921 48.287"><defs><style>.a,.b{fill:#fff;}.a{font-size:24px;font-family:Playfair Display;}</style></defs><g transform="translate(-30.079 -44.981)"><text class="a" transform="translate(85 77)"><tspan x="0" y="0">LOGO</tspan></text><g transform="translate(-938.17 -29.672)"><path class="b" d="M968.249,74.653s16.971,6.407,16.611,15.679h.005V106.01S967.895,99.6,968.255,90.332h-.006Z" transform="translate(0)"/><g transform="translate(987.096 78.287)"><path class="b" d="M1066.954,142.038a23.217,23.217,0,0,1,10.78-3.973v-4.909a22.118,22.118,0,0,0-10.78,8.883Z" transform="translate(-1054.071 -117.983)"/><path class="b" d="M1037.833,111.49a23.058,23.058,0,0,1,12.708-11.39V85.958s-24.167,9.124-23.655,22.327h-.008v22.327s1.078-.408,2.771-1.173c-.006-.716.017-1.436.077-2.159A23.2,23.2,0,0,1,1037.833,111.49Z" transform="translate(-1026.878 -85.958)"/><path class="b" d="M1044.792,181.538a23.18,23.18,0,0,1,.844-4.571,21.549,21.549,0,0,0-5.053,12.2c-.035.426-.054.85-.064,1.274,1.373-.661,2.97-1.483,4.648-2.45A23.057,23.057,0,0,1,1044.792,181.538Z" transform="translate(-1036.134 -147.711)"/><path class="b" d="M1056.643,165.665a22.109,22.109,0,0,0,.3,5.852c6.6-3.95,14.025-10.054,13.738-17.432h.008v-.628a21.674,21.674,0,0,0-12.563,5.867A22.077,22.077,0,0,0,1056.643,165.665Z" transform="translate(-1047.024 -131.759)"/></g></g></g></svg>