<svg xmlns="http://www.w3.org/2000/svg" width="20.022" height="16.951" viewBox="0 0 20.022 16.951"><defs><style>.a{fill:none;stroke:#ffb400;stroke-linecap:round;stroke-linejoin:round;}</style></defs><g transform="translate(0.5 0.5)"><rect class="a" width="15.951" height="9.97" rx="0.998" transform="translate(0 15.951) rotate(-90)"/><rect class="a" width="11.963" height="8.973" rx="0.998" transform="translate(10.049 15.951) rotate(-90)"/><rect class="a" width="1.994" height="1.994" transform="translate(1.994 2.991)"/><rect class="a" width="1.994" height="1.994" transform="translate(6.01 2.991)"/><rect class="a" width="1.994" height="1.994" transform="translate(1.994 6.979)"/><rect class="a" width="1.994" height="1.994" transform="translate(6.01 6.979)"/><path class="a" d="M446.5,1834.5h1v1.994h-1" transform="translate(-434.483 -1827.521)"/><rect class="a" width="1.994" height="1.994" transform="translate(15.034 6.979)"/><path class="a" d="M446.5,1838.5h1v1.994h-1" transform="translate(-434.483 -1827.533)"/><rect class="a" width="1.994" height="1.994" transform="translate(15.034 10.967)"/><rect class="a" width="1.994" height="1.994" transform="translate(1.994 10.967)"/><rect class="a" width="1.994" height="1.994" transform="translate(6.01 10.967)"/></g></svg>