<svg xmlns="http://www.w3.org/2000/svg" width="21" height="22" viewBox="0 0 21 22"><defs><style>.a,.b{fill:none;}.b{stroke:#ffb400;stroke-linecap:round;stroke-linejoin:round;}</style></defs><g transform="translate(0.062 -0.215)"><rect class="a" width="20" height="22" transform="translate(0.438 0.215)"/><g transform="translate(1.358 5.348)"><path class="b" d="M197.5,1124.275v-2.056a1.166,1.166,0,0,1,.142-.559c.459-.849,2.184-3.159,7.371-3.159s6.913,2.31,7.371,3.159a1.166,1.166,0,0,1,.142.559v2.056a1.16,1.16,0,0,1-1.161,1.161H198.661A1.16,1.16,0,0,1,197.5,1124.275Z" transform="translate(-195.911 -1110.565)"/><path class="b" d="M210.75,1117.5c2.186,0,2.95,1.094,3.172,1.544a.81.81,0,0,1,.079.361v1.563" transform="translate(-194.92 -1110.565)"/><path class="b" d="M196.751,1117.5c-2.186,0-2.95,1.094-3.172,1.544a.81.81,0,0,0-.079.361v1.563" transform="translate(-194.419 -1110.565)"/><circle class="b" cx="3.034" cy="3.034" r="3.034" transform="translate(6.068 -1)"/><circle class="b" cx="1.8" cy="1.8" r="1.8" transform="translate(0.734 1.601)"/><circle class="b" cx="1.8" cy="1.8" r="1.8" transform="translate(13.871 1.601)"/></g></g></svg>