<svg xmlns="http://www.w3.org/2000/svg" width="26.997" height="26.999" viewBox="0 0 26.997 26.999"><defs><style>.a{fill:#ddd;}.b{fill:#eb1717;}</style></defs><path class="a" d="M27.647,7.4h-2.7V19.55H7.4v2.7a1.354,1.354,0,0,0,1.35,1.35H23.6L29,29V8.75A1.354,1.354,0,0,0,27.647,7.4Zm-5.4,8.1V3.35A1.354,1.354,0,0,0,20.9,2H3.35A1.354,1.354,0,0,0,2,3.35v18.9l5.4-5.4H20.9A1.354,1.354,0,0,0,22.248,15.5Z" transform="translate(-2 -2)"/><circle class="b" cx="6.05" cy="6.05" r="6.05" transform="translate(13.85 7.93)"/></svg>