<svg xmlns="http://www.w3.org/2000/svg" width="22.604" height="25.597" viewBox="0 0 22.604 25.597"><defs><style>.a{fill:#fff;stroke:#fff;stroke-width:0.25px;}</style></defs><g transform="translate(-0.235 0.125)"><path class="a" d="M187.848,153.194a.4.4,0,0,0-.143,0,.945.945,0,0,1-.836-.937.416.416,0,0,0-.832,0,1.779,1.779,0,0,0,1.308,1.713v.416a.416.416,0,0,0,.832,0v-.391a1.775,1.775,0,0,0-.364-3.513.944.944,0,1,1,.944-.944.416.416,0,1,0,.832,0,1.779,1.779,0,0,0-1.412-1.738v-.378a.416.416,0,0,0-.832,0v.4a1.775,1.775,0,0,0,.468,3.488.943.943,0,0,1,.035,1.886Zm0,0" transform="translate(-176.028 -139.36)"/><path class="a" d="M104.2,112.521a6.029,6.029,0,1,0,6.029-6.029A6.029,6.029,0,0,0,104.2,112.521Zm6.029-5.2a5.2,5.2,0,1,1-5.2,5.2A5.2,5.2,0,0,1,110.224,107.324Zm0,0" transform="translate(-98.439 -100.958)"/><path class="a" d="M19.864,328.013l-3.257,1.539a2.653,2.653,0,0,0-2.262-1.4l-3.007-.083a3.176,3.176,0,0,1-1.366-.353l-.306-.159a5.4,5.4,0,0,0-5,.005l.019-.693a.416.416,0,0,0-.4-.427l-3.3-.091a.416.416,0,0,0-.427.4L.36,334a.416.416,0,0,0,.4.427l3.3.091h.011a.416.416,0,0,0,.416-.4l.01-.346.857-.459a1.469,1.469,0,0,1,1.1-.12l5.115,1.435.027.007a5.478,5.478,0,0,0,1.124.116,5.547,5.547,0,0,0,2.317-.506.4.4,0,0,0,.052-.028l7.416-4.8a.416.416,0,0,0,.136-.554A2.1,2.1,0,0,0,19.864,328.013ZM1.2,333.6l.176-6.4,2.466.068-.176,6.4Zm13.457-.109a4.714,4.714,0,0,1-2.883.322l-5.1-1.432a2.3,2.3,0,0,0-1.714.187l-.438.234.117-4.258a4.57,4.57,0,0,1,4.643-.248l.306.159a4.016,4.016,0,0,0,1.726.446l3.007.083a1.824,1.824,0,0,1,1.733,1.453l-4.479-.124a.416.416,0,0,0-.023.831l4.943.136h.012a.416.416,0,0,0,.415-.4,2.639,2.639,0,0,0-.04-.539l3.341-1.578.01,0a1.27,1.27,0,0,1,1.437.2Zm0,0" transform="translate(0 -309.395)"/><path class="a" d="M213.035,4.366V.416a.416.416,0,1,0-.832,0v3.95a.416.416,0,1,0,.832,0Zm0,0" transform="translate(-200.833)"/><path class="a" d="M273.035,42.287V40.416a.416.416,0,0,0-.832,0v1.871a.416.416,0,0,0,.832,0Zm0,0" transform="translate(-257.715 -37.921)"/><path class="a" d="M153.035,42.287V40.416a.416.416,0,1,0-.832,0v1.871a.416.416,0,1,0,.832,0Zm0,0" transform="translate(-143.951 -37.921)"/></g></svg>