<svg xmlns="http://www.w3.org/2000/svg" width="20.431" height="20.345" viewBox="0 0 20.431 20.345"><defs><style>.a{fill:#ffb400;stroke:#ffb400;stroke-width:0.25px;}</style></defs><g transform="translate(-0.066 0.125)"><path class="a" d="M113.557,27.433a4.416,4.416,0,0,1,3.557,1.776.36.36,0,1,0,.576-.432,5.149,5.149,0,1,0,.762,1.441.36.36,0,0,0-.682.231,4.449,4.449,0,1,1-4.213-3.016Zm0,0" transform="translate(-100.352 -24.8)"/><path class="a" d="M13.206,0A7.083,7.083,0,0,0,7.037,10.56a.36.36,0,1,0,.627-.354A6.367,6.367,0,1,1,8.709,11.58a.36.36,0,0,0-.509,0l-.971.971a1.432,1.432,0,0,0-1.747.212L.7,17.539a1.434,1.434,0,0,0,0,2.026l.017.017a1.434,1.434,0,0,0,2.026,0l4.777-4.777a1.428,1.428,0,0,0,.209-1.743l.726-.726A7.08,7.08,0,1,0,13.206,0ZM7.016,14.3,2.239,19.073a.714.714,0,0,1-1.007,0l-.017-.017a.712.712,0,0,1,0-1.007l4.777-4.777a.707.707,0,0,1,.5-.209.723.723,0,0,1,.521.226.712.712,0,0,1,0,1.007Zm0,0"/></g></svg>